<svg xmlns="http://www.w3.org/2000/svg" viewBox="0 0 1024 1024" width="1024" height="1024">
  <path d="M 363 133.56 L 611 176.98 L 539.37 234 L 840.45 524 L 840.3 600 L 508 869.4 L 501.65 865 L 260 619.82 L 226 669.61 L 180 501.11 L 365 511.27 L 309.5 560 L 506 755.32 L 752.26 555 L 478 302.8 L 475.55 304 L 425 380.27 L 361.77 134 Z" fill="#FFFFFF" />
  <path d="M 784.53 137 L 783.74 418 L 866.08 500 L 877.41 615 L 784.01 699 L 783.68 755 L 955 921.54 L 955.83 300 L 785.08 137 Z" fill="#FFFFFF" />
  <path d="M 131.03 377 L 133.21 377 L 162 463.22 L 146 473.61 L 90.56 413 L 130 377.81 Z" fill="#FFFFFF" />
  <path d="M 185.5 402 L 235.91 408 L 212 468.48 L 187.52 456 L 185.5 403 Z" fill="#FFFFFF" />
  <path d="M 81.31 475 L 132.78 497 L 133.5 521 L 73 521.13 L 80.93 476 Z" fill="#FFFFFF" />
  <path d="M 146.66 541 L 151 541.54 L 168.48 554 L 136 613.04 L 134.07 613 L 102.89 580 L 146 541.63 Z" fill="#FFFFFF" />
  <path d="M 263.69 780 L 371 779.8 L 504 904.7 L 678 779.47 L 738 779.38 L 908.48 931 L 132 931.5 L 262.8 781 Z" fill="#FFFFFF" />
</svg>
