<svg xmlns="http://www.w3.org/2000/svg" viewBox="0 0 1024 1024" width="1024" height="1024">
  <path d="M 512 150 C 710 150 860 300 860 500 C 860 650 780 780 660 840 L 580 720 C 660 670 710 590 710 500 C 710 390 620 300 512 300 C 404 300 314 390 314 500 C 314 590 364 670 444 720 L 364 840 C 244 780 164 650 164 500 C 164 300 314 150 512 150 Z" fill="#FFFFFF" />
  <path d="M 120 480 L 320 480 L 280 560 L 80 560 Z" fill="#FFFFFF" />
  <path d="M 160 620 L 340 620 L 300 700 L 120 700 Z" fill="#FFFFFF" />
  <path d="M 220 750 L 380 750 L 340 820 L 180 820 Z" fill="#FFFFFF" />
</svg>