<?xml version="1.0" encoding="UTF-8" standalone="no"?>
<svg
   viewBox="0 0 1024 1024"
   width="1024"
   height="1024"
   version="1.1"
   id="svg21"
   sodipodi:docname="ult_unlock.svg"
   inkscape:version="1.4.2 (f4327f4, 2025-05-13)"
   xmlns:inkscape="http://www.inkscape.org/namespaces/inkscape"
   xmlns:sodipodi="http://sodipodi.sourceforge.net/DTD/sodipodi-0.dtd"
   xmlns="http://www.w3.org/2000/svg"
   xmlns:svg="http://www.w3.org/2000/svg">
  <defs
     id="defs21" />
  <sodipodi:namedview
     id="namedview21"
     pagecolor="#505050"
     bordercolor="#eeeeee"
     borderopacity="1"
     inkscape:showpageshadow="0"
     inkscape:pageopacity="0"
     inkscape:pagecheckerboard="0"
     inkscape:deskcolor="#505050"
     inkscape:zoom="1.1396484"
     inkscape:cx="512"
     inkscape:cy="512"
     inkscape:window-width="2560"
     inkscape:window-height="1369"
     inkscape:window-x="1912"
     inkscape:window-y="-8"
     inkscape:window-maximized="1"
     inkscape:current-layer="svg21" />
  <path
     d="m 408.45524,80.284028 -143.06642,291.020012 75.50557,-89.31981 -25.30769,68.44496 -54.9991,67.53629 34.97152,-1.22794 -65.17866,74.26537 9.16038,-55.84638 -26.03217,-1.22793 31.60698,-80.87163 -51.57317,54.64299 -3.31541,-27.80039 -33.52256,33.75586 -37.18179,22.72904 60.68442,-84.72735 31.2386,-74.90388 57.51637,-60.16869 -44.46345,114.19772 182.15152,-249.270308 z"
     fill="#ffffff"
     id="path2"
     style="stroke-width:1.22793" />
  <path
     d="m 894.40348,41.786148 -305.24749,590.252782 1.71868,1.37147 7.60385,-8.31562 L 763.10696,439.33875 486.71242,921.52319 372.13393,993.58611 240.19508,978.15274 227.55672,963.6221 178.66991,897.65268 169.8682,730.99307 394.70242,431.99532 312.41424,628.56685 313.10866,630.9105 373.86997,580.33973 388.43533,566.0695 489.49008,380.31348 649.89995,218.44533 517.5618,432.3946 488.44845,509.47467 887.7371,44.251318 Z"
     fill="#ffffff"
     id="path3"
     style="stroke-width:1.73604" />
  <path
     d="m 619.78779,20.634333 -82.1492,145.827157 50.3798,-43.40094 -99.82218,163.18753 0.7812,2.41309 35.1895,-24.98158 -64.7021,98.08612 -39.92889,6.99623 -41.6649,-34.79019 8.31562,-40.77952 97.58267,-138.50108 -12.812,65.5875 0.6597,2.63878 2.3437,-2.63878 142.73698,-197.908287 z"
     fill="#ffffff"
     id="path4"
     style="stroke-width:1.73604" />
  <path
     d="M 845.46772,274.38097 773.56105,392.43152 836.1452,347.29454 846.23158,276.117 Z"
     fill="#ffffff"
     id="path5"
     style="stroke-width:1.73604" />
  <path
     d="m 978.64036,423.69909 -195.59928,270.19689 34.7207,-106.80103 -137.9455,213.3243 132.7374,-68.48669 -14.7563,63.27857 29.3738,-24.30452 -23.5581,144.09112 2.4305,-1.73604 97.65208,-164.92357 -55.7962,24.30453 85.222,-147.5632 -56.3344,56.2129 -0.7638,-2.39573 104.0754,-253.46149 z"
     fill="#ffffff"
     id="path7"
     style="stroke-width:1.73604" />
  <path
     d="m 169.43817,429.01687 4.45739,-0.61397 42.21633,37.45195 -1.57176,24.55865 -38.1887,52.24853 -45.4335,9.77434 -40.546327,-41.14802 13.003807,-51.57317 65.60842,-30.29309 z"
     fill="#ffffff"
     id="path8"
     style="stroke-width:1.22793" />
  <path
     d="m 751.79238,796.33956 40.658,42.27251 -21.0408,118.05056 -83.85057,13.22861 -57.89686,-58.36559 15.52018,-67.70546 4.18385,-7.32608 89.04137,-39.54694 z"
     fill="#ffffff"
     id="path10"
     style="stroke-width:1.73604" />
</svg>
