<?xml version="1.0" encoding="UTF-8" standalone="no"?>
<!-- Created with Inkscape (http://www.inkscape.org/) -->

<svg
   width="94.069176mm"
   height="28.188477mm"
   viewBox="0 0 94.069176 28.188477"
   version="1.1"
   id="svg1"
   xml:space="preserve"
   xmlns="http://www.w3.org/2000/svg"
   xmlns:svg="http://www.w3.org/2000/svg"><defs
     id="defs1"><linearGradient
       id="swatch485"><stop
         style="stop-color:#000000;stop-opacity:1;"
         offset="0"
         id="stop485" /></linearGradient><filter
       style="color-interpolation-filters:sRGB"
       id="filter259"
       x="-0.11398696"
       y="-0.10899989"
       width="1.2754685"
       height="1.2634164"><feFlood
         result="flood"
         in="SourceGraphic"
         flood-opacity="0.498039"
         flood-color="rgb(0,0,0)"
         id="feFlood257" /><feGaussianBlur
         result="blur"
         in="SourceGraphic"
         stdDeviation="1.000000"
         id="feGaussianBlur257" /><feOffset
         result="offset"
         in="blur"
         dx="1.000000"
         dy="1.000000"
         id="feOffset257" /><feComposite
         result="comp1"
         operator="in"
         in="flood"
         in2="offset"
         id="feComposite258" /><feComposite
         result="comp2"
         operator="over"
         in="SourceGraphic"
         in2="comp1"
         id="feComposite259" /></filter><filter
       style="color-interpolation-filters:sRGB"
       id="filter261"
       x="-0.25957929"
       y="-0.26613938"
       width="1.6273166"
       height="1.6431702"><feFlood
         result="flood"
         in="SourceGraphic"
         flood-opacity="0.498039"
         flood-color="rgb(0,0,0)"
         id="feFlood259" /><feGaussianBlur
         result="blur"
         in="SourceGraphic"
         stdDeviation="1.000000"
         id="feGaussianBlur259" /><feOffset
         result="offset"
         in="blur"
         dx="1.000000"
         dy="1.000000"
         id="feOffset259" /><feComposite
         result="comp1"
         operator="in"
         in="flood"
         in2="offset"
         id="feComposite260" /><feComposite
         result="comp2"
         operator="over"
         in="SourceGraphic"
         in2="comp1"
         id="feComposite261" /></filter><filter
       style="color-interpolation-filters:sRGB"
       id="filter263"
       x="-0.11638052"
       y="-0.11638051"
       width="1.2812529"
       height="1.2812529"><feFlood
         result="flood"
         in="SourceGraphic"
         flood-opacity="0.498039"
         flood-color="rgb(0,0,0)"
         id="feFlood261" /><feGaussianBlur
         result="blur"
         in="SourceGraphic"
         stdDeviation="1.000000"
         id="feGaussianBlur261" /><feOffset
         result="offset"
         in="blur"
         dx="1.000000"
         dy="1.000000"
         id="feOffset261" /><feComposite
         result="comp1"
         operator="in"
         in="flood"
         in2="offset"
         id="feComposite262" /><feComposite
         result="comp2"
         operator="over"
         in="SourceGraphic"
         in2="comp1"
         id="feComposite263" /></filter><filter
       style="color-interpolation-filters:sRGB"
       id="filter265"
       x="-0.16031903"
       y="-0.12348868"
       width="1.3874377"
       height="1.298431"><feFlood
         result="flood"
         in="SourceGraphic"
         flood-opacity="0.498039"
         flood-color="rgb(0,0,0)"
         id="feFlood263" /><feGaussianBlur
         result="blur"
         in="SourceGraphic"
         stdDeviation="1.000000"
         id="feGaussianBlur263" /><feOffset
         result="offset"
         in="blur"
         dx="1.000000"
         dy="1.000000"
         id="feOffset263" /><feComposite
         result="comp1"
         operator="in"
         in="flood"
         in2="offset"
         id="feComposite264" /><feComposite
         result="comp2"
         operator="over"
         in="SourceGraphic"
         in2="comp1"
         id="feComposite265" /></filter><filter
       style="color-interpolation-filters:sRGB"
       id="filter267"
       x="-0.47905913"
       y="-0.73243156"
       width="2.1577262"
       height="2.7700429"><feFlood
         result="flood"
         in="SourceGraphic"
         flood-opacity="0.498039"
         flood-color="rgb(0,0,0)"
         id="feFlood265" /><feGaussianBlur
         result="blur"
         in="SourceGraphic"
         stdDeviation="1.000000"
         id="feGaussianBlur265" /><feOffset
         result="offset"
         in="blur"
         dx="1.000000"
         dy="1.000000"
         id="feOffset265" /><feComposite
         result="comp1"
         operator="in"
         in="flood"
         in2="offset"
         id="feComposite266" /><feComposite
         result="comp2"
         operator="over"
         in="SourceGraphic"
         in2="comp1"
         id="feComposite267" /></filter><filter
       style="color-interpolation-filters:sRGB"
       id="filter269"
       x="-0.1224715"
       y="-0.12203213"
       width="1.2959728"
       height="1.294911"><feFlood
         result="flood"
         in="SourceGraphic"
         flood-opacity="0.498039"
         flood-color="rgb(0,0,0)"
         id="feFlood267" /><feGaussianBlur
         result="blur"
         in="SourceGraphic"
         stdDeviation="1.000000"
         id="feGaussianBlur267" /><feOffset
         result="offset"
         in="blur"
         dx="1.000000"
         dy="1.000000"
         id="feOffset267" /><feComposite
         result="comp1"
         operator="in"
         in="flood"
         in2="offset"
         id="feComposite268" /><feComposite
         result="comp2"
         operator="over"
         in="SourceGraphic"
         in2="comp1"
         id="feComposite269" /></filter><filter
       style="color-interpolation-filters:sRGB"
       id="filter271"
       x="-2.3194008"
       y="-3.4416497"
       width="6.6052187"
       height="9.3173201"><feFlood
         result="flood"
         in="SourceGraphic"
         flood-opacity="0.498039"
         flood-color="rgb(0,0,0)"
         id="feFlood269" /><feGaussianBlur
         result="blur"
         in="SourceGraphic"
         stdDeviation="1.000000"
         id="feGaussianBlur269" /><feOffset
         result="offset"
         in="blur"
         dx="1.000000"
         dy="1.000000"
         id="feOffset269" /><feComposite
         result="comp1"
         operator="in"
         in="flood"
         in2="offset"
         id="feComposite270" /><feComposite
         result="comp2"
         operator="over"
         in="SourceGraphic"
         in2="comp1"
         id="feComposite271" /></filter><filter
       style="color-interpolation-filters:sRGB"
       id="filter273"
       x="-0.8965695"
       y="-2.2227367"
       width="3.1667096"
       height="6.3716138"><feFlood
         result="flood"
         in="SourceGraphic"
         flood-opacity="0.498039"
         flood-color="rgb(0,0,0)"
         id="feFlood271" /><feGaussianBlur
         result="blur"
         in="SourceGraphic"
         stdDeviation="1.000000"
         id="feGaussianBlur271" /><feOffset
         result="offset"
         in="blur"
         dx="1.000000"
         dy="1.000000"
         id="feOffset271" /><feComposite
         result="comp1"
         operator="in"
         in="flood"
         in2="offset"
         id="feComposite272" /><feComposite
         result="comp2"
         operator="over"
         in="SourceGraphic"
         in2="comp1"
         id="feComposite273" /></filter><filter
       style="color-interpolation-filters:sRGB"
       id="filter275"
       x="-0.75134891"
       y="-1.1350147"
       width="2.8157599"
       height="3.7429523"><feFlood
         result="flood"
         in="SourceGraphic"
         flood-opacity="0.498039"
         flood-color="rgb(0,0,0)"
         id="feFlood273" /><feGaussianBlur
         result="blur"
         in="SourceGraphic"
         stdDeviation="1.000000"
         id="feGaussianBlur273" /><feOffset
         result="offset"
         in="blur"
         dx="1.000000"
         dy="1.000000"
         id="feOffset273" /><feComposite
         result="comp1"
         operator="in"
         in="flood"
         in2="offset"
         id="feComposite274" /><feComposite
         result="comp2"
         operator="over"
         in="SourceGraphic"
         in2="comp1"
         id="feComposite275" /></filter><filter
       style="color-interpolation-filters:sRGB"
       id="filter277"
       x="-1.6165187"
       y="-2.1338455"
       width="4.9065868"
       height="6.1567932"><feFlood
         result="flood"
         in="SourceGraphic"
         flood-opacity="0.498039"
         flood-color="rgb(0,0,0)"
         id="feFlood275" /><feGaussianBlur
         result="blur"
         in="SourceGraphic"
         stdDeviation="1.000000"
         id="feGaussianBlur275" /><feOffset
         result="offset"
         in="blur"
         dx="1.000000"
         dy="1.000000"
         id="feOffset275" /><feComposite
         result="comp1"
         operator="in"
         in="flood"
         in2="offset"
         id="feComposite276" /><feComposite
         result="comp2"
         operator="over"
         in="SourceGraphic"
         in2="comp1"
         id="feComposite277" /></filter><filter
       style="color-interpolation-filters:sRGB"
       id="filter279"
       x="-0.7112776"
       y="-1.5241676"
       width="2.7189209"
       height="4.683405"><feFlood
         result="flood"
         in="SourceGraphic"
         flood-opacity="0.498039"
         flood-color="rgb(0,0,0)"
         id="feFlood277" /><feGaussianBlur
         result="blur"
         in="SourceGraphic"
         stdDeviation="1.000000"
         id="feGaussianBlur277" /><feOffset
         result="offset"
         in="blur"
         dx="1.000000"
         dy="1.000000"
         id="feOffset277" /><feComposite
         result="comp1"
         operator="in"
         in="flood"
         in2="offset"
         id="feComposite278" /><feComposite
         result="comp2"
         operator="over"
         in="SourceGraphic"
         in2="comp1"
         id="feComposite279" /></filter></defs><g
     id="layer2"
     transform="translate(140.89864,-229.32472)"><path
       id="path339"
       style="fill:#ffffff;fill-opacity:1;stroke-width:0.24357;filter:url(#filter259)"
       d="m -135.4172,231.72471 v 1.18184 l -1.55184,0.1142 v -1.12448 l -1.46244,0.36226 -0.0222,3.43131 1.10225,1.27693 v 0.42684 l 1.41749,0.0724 -1.41749,0.0253 v 3.34864 l 1.86242,0.15709 -1.86242,0.0274 v 3.32641 c 0.6681,0.11813 2.02159,0.0822 2.02159,0.0822 l -2.02159,0.0553 v 4.09795 l 2.24431,0.10955 -2.24431,0.11627 v 1.30896 l -0.62993,2.09703 -0.51728,0.38086 v 1.14411 l 5.63428,-0.0382 v -5.3175 c 0,-3.20562 3.65869,-3.70365 3.65869,-3.70365 v -0.14521 c 1.19694,-0.49876 2.65152,0 2.65152,0 v 0.13022 c 2.9918,0.85786 3.622,2.59739 3.622,3.45044 v 5.56658 h 5.44359 v -0.95291 l -0.42736,-0.43873 -0.60771,-2.80242 v -0.68471 l -2.14044,-0.1111 2.14044,-0.10439 v -4.10569 l -1.91772,-0.0527 c 0,0 1.223,0.0326 1.91772,-0.0656 v -3.3445 l -1.75907,-0.0258 1.75907,-0.14831 v -3.35949 l -1.31362,-0.0232 1.31362,-0.0667 v -0.43274 l 1.08003,-1.27692 v -3.43132 l -1.4397,-0.32453 v 0.99167 h -1.52964 v -1.16324 h -1.84485 v 1.20096 h -1.64176 v -1.01027 l -1.41749,0.30541 v 3.41219 l 1.01234,1.20096 v 5.12785 h -1.21439 v 0.99167 h -1.57458 v -1.04851 h -1.79989 v 1.04851 h -1.43971 v -1.01027 h -1.23713 v -5.01416 l 0.9896,-1.1436 v -3.622 l -1.32705,-0.24805 v 0.91519 h -1.55184 v -1.1436 z" /><path
       style="fill:#ffffff;fill-opacity:1;stroke-width:0.250565;filter:url(#filter261)"
       d="m -123.28554,253.71172 v -5.67505 c 0,0 -0.0539,-1.88432 -3.33628,-3.03011 l -0.004,-0.12469 c 0,0 -0.96368,-0.40777 -2.567,0 v 0.19209 c 0,0 -2.76614,0.19258 -3.33845,3.08403 v 5.56048 h 1.95394 v -5.38524 c 0,0 0.31982,-1.98829 2.49126,-2.07591 2.17144,-0.0876 2.81109,1.67825 2.8195,2.08265 0.008,0.4044 0,5.37175 0,5.37175 z"
       id="path340" /><path
       id="path341"
       style="fill:#ffffff;fill-opacity:1;stroke-width:0.264583;filter:url(#filter263)"
       d="m -106.5988,233.3768 a 10.310977,10.310977 0 0 0 -1.07642,0.0563 l 0.73639,0.83975 0.11472,0.077 1.14515,-0.36949 0.17622,-0.54519 a 10.310977,10.310977 0 0 0 -1.09606,-0.0584 z m -1.23042,0.0734 a 10.310977,10.310977 0 0 0 -9.08058,10.23762 10.310977,10.310977 0 0 0 1.6614,5.61206 l 0.46922,0.19121 1.20923,-0.15917 v -0.73174 l 1.3994,-1.78128 0.14572,-0.50953 a 6.0523758,6.0523758 0 0 1 -0.51418,-2.44171 6.0523758,6.0523758 0 0 1 6.05235,-6.05235 6.0523758,6.0523758 0 0 1 2.7559,0.66353 l 0.14366,-0.24702 -0.83199,-1.91202 -0.80977,-0.49455 -0.56276,0.31471 0.18036,-0.56224 -1.50741,-0.96738 z m 2.63343,0.0227 -0.34829,0.66508 -1.0356,0.3762 2.31769,1.55805 1.23041,2.82618 a 6.0523758,6.0523758 0 0 1 2.59726,4.96921 6.0523758,6.0523758 0 0 1 -0.29507,1.86707 l 1.061432,0.57516 0.57258,-0.7953 -0.34985,0.89038 1.240755,1.74977 0.50901,0.0956 0.44184,-0.20516 a 10.310977,10.310977 0 0 0 0.96583,-4.35736 10.310977,10.310977 0 0 0 -8.907997,-10.21488 z m 4.33152,12.63644 a 6.0523758,6.0523758 0 0 1 -5.62239,3.81114 6.0523758,6.0523758 0 0 1 -5.33921,-3.20239 l -1.36219,1.75493 0.38137,1.71773 -0.43615,1.38183 a 10.310977,10.310977 0 0 0 6.64404,2.4262 10.310977,10.310977 0 0 0 7.696172,-3.44888 l 0.12506,-1.31362 0.25476,-0.89038 -1.17719,-1.74977 z" /><path
       id="path343"
       style="fill:#ffffff;fill-opacity:1;stroke-width:0.264583;filter:url(#filter265)"
       d="m -94.667743,234.03775 v 0.68574 l 0.7984,0.7984 v 0.0341 l 1.19218,0.49403 0.47232,-0.13488 -0.29197,0.17984 0.87695,0.58498 -2.24948,-0.87644 v 15.98249 l -0.76481,0.76481 v 0.92191 l 14.93656,-0.0899 v -4.79144 l -1.41697,1.41749 h -8.40569 V 235.3953 l 1.02733,-0.59273 v -0.76481 z" /><path
       style="opacity:1;fill:#ffffff;fill-opacity:1;stroke-width:0.264583;filter:url(#filter267)"
       d="m -53.164573,252.37617 -0.22653,-1.54838 -0.23347,-0.29826 -2.85918,0.7489 -1.69064,2.42205 c 0.003,3.5e-4 0.006,6.7e-4 0.009,0.001 1.91267,0.23526 3.50018,0.0595 4.81655,-0.37769 z"
       id="path344" /><path
       id="path345"
       style="opacity:1;fill:#ffffff;fill-opacity:1;stroke-width:0.264583;filter:url(#filter269)"
       d="m -68.516883,233.96385 c -0.27292,-0.003 -0.4284,0.006 -0.4284,0.006 h -9.0935 v 1.10794 l 0.9617,0.9617 v 15.75769 l -0.82114,0.82114 v 0.96687 l 9.53792,0.045 c 0,0 10.10914,-0.23952 9.91516,-9.78855 l -2.92075,-1.54048 -1.03095,-2.8267 -0.90227,1.00666 -0.0641,0.86816 v 5.2e-4 c 0.27243,0.62893 0.45774,1.37815 0.51418,2.27066 0.35991,5.69117 -5.73608,6.00584 -5.73608,6.00584 l -4.2292,0.0227 v -11.58463 h 4.00441 c 0,0 3.0746,-0.074 4.81417,2.20245 l 0.56173,0.062 0.95498,-1.08003 v -5.2e-4 l 0.25424,-0.28732 -0.38188,-0.6997 0.54053,0.60461 1.39992,-0.38189 0.76377,-0.032 0.0326,-0.0884 c -1.8519,-3.07581 -5.08632,-4.01189 -7.15202,-4.28862 -0.71831,0.31736 -1.8557,1.03043 -1.8557,1.03043 l -0.17983,1.372 -0.045,-1.4397 1.28209,-0.80977 -0.17777,-0.24598 c -0.20144,-0.0114 -0.3762,-0.0165 -0.51883,-0.0181 z" /><path
       style="fill:#ffffff;stroke-width:0.264583;filter:url(#filter271)"
       d="m -60.352073,253.6633 h 0.76482 l 0.26993,-0.4499 -0.87729,-0.24744 z"
       id="path346" /><path
       style="fill:#ffffff;stroke-width:0.264583;filter:url(#filter273)"
       d="m -52.636383,252.56105 -0.26994,0.8548 0.96727,0.22495 1.7096,-0.11247 -0.24744,-0.69734 z"
       id="path347" /><path
       style="fill:#ffffff;stroke-width:0.264583;filter:url(#filter275)"
       d="m -95.736273,253.34837 -1.61962,-1.75459 -1.259715,1.3047 -0.31492,0.80981 z"
       id="path349" /><path
       style="fill:#ffffff;stroke-width:0.264583;filter:url(#filter277)"
       d="m -99.650358,253.48334 -0.09,-0.8548 -1.079752,0.31492 -0.31492,0.80981 z"
       id="path350" /><path
       style="display:inline;fill:#ffffff;stroke-width:0.264583;filter:url(#filter279)"
       d="m -115.21671,253.88824 1.57463,-1.34968 1.3047,0.62985 0.49488,0.94478 z"
       id="path351" /></g></svg>
